<svg xmlns="http://www.w3.org/2000/svg" viewBox="0 0 385 260.41"><defs><style>.cls-1{isolation:isolate;}.cls-2,.cls-7{fill:#e7ecf2;}.cls-11,.cls-2{stroke:#3d4653;}.cls-18,.cls-2,.cls-3{stroke-miterlimit:10;}.cls-2{opacity:0.3;}.cls-11,.cls-18,.cls-3{fill:none;}.cls-3{stroke:#52bced;stroke-width:2px;}.cls-4{font-size:15px;fill:#3d4653;font-family:NotoSansCJKjp-Bold-83pv-RKSJ-H, Noto Sans CJK JP;font-weight:700;}.cls-5{letter-spacing:0.01em;}.cls-6{letter-spacing:-0.01em;}.cls-8{letter-spacing:-0.02em;}.cls-9{letter-spacing:-0.01em;}.cls-10{letter-spacing:-0.01em;}.cls-11{stroke-linejoin:round;stroke-dasharray:3 2;}.cls-12{letter-spacing:0.01em;}.cls-13{letter-spacing:-0.03em;}.cls-14{opacity:0.55;mix-blend-mode:multiply;}.cls-15{fill:#7a7a7a;}.cls-16{fill:#52bced;}.cls-17{fill:#fff;}.cls-18{stroke:#fff;stroke-linecap:round;stroke-width:2.5px;}</style></defs><title>JCConf_2018_softleader</title><g class="cls-1"><g id="圖層_1" data-name="圖層 1"><line class="cls-2" x1="40.97" y1="67.41" x2="241.23" y2="67.41"/><rect class="cls-3" x="40.47" y="26.41" width="200.26" height="200.26"/><text class="cls-4" transform="translate(89.82 54.05) scale(1.01 1)">Config Se<tspan class="cls-5" x="69.73" y="0">r</tspan><tspan class="cls-6" x="76.48" y="0">v</tspan><tspan x="85" y="0">er</tspan></text><rect class="cls-7" x="49.85" y="153.01" width="180.5" height="27.71"/><text class="cls-4" transform="translate(79.11 171.7) scale(1.01 1)"><tspan class="cls-8">F</tspan><tspan x="8.49" y="0">eign P</tspan><tspan class="cls-9" x="53.74" y="0">r</tspan><tspan x="60.1" y="0">operties</tspan></text><rect class="cls-7" x="49.85" y="188.13" width="180.5" height="27.71"/><text class="cls-4" transform="translate(73.4 206.84) scale(1.01 1)">Eu<tspan class="cls-9" x="18.78" y="0">r</tspan><tspan x="25.14" y="0">e</tspan><tspan class="cls-10" x="33.85" y="0">k</tspan><tspan x="42.75" y="0">a P</tspan><tspan class="cls-9" x="65.02" y="0">r</tspan><tspan x="71.38" y="0">operties</tspan></text><rect class="cls-7" x="49.85" y="80.76" width="180.5" height="27.71"/><text class="cls-4" transform="translate(56.8 101.2) scale(1.01 1)">Appli<tspan class="cls-10" x="38.22" y="0">c</tspan><tspan class="cls-8" x="45.94" y="0">a</tspan><tspan x="54.52" y="0">tion P</tspan><tspan class="cls-9" x="97.8" y="0">r</tspan><tspan x="104.16" y="0">operties</tspan></text><polyline class="cls-11" points="230.35 166.86 293.94 119.84 230.35 94.62 293.94 47.41 230.35 130.99"/><polyline class="cls-11" points="230.35 201.99 293.94 190.34 230.35 94.62"/><rect class="cls-7" x="49.85" y="117.13" width="180.5" height="27.71"/><text class="cls-4" transform="translate(72.09 135.09) scale(1.01 1)">Se<tspan class="cls-12" x="18.07" y="0">r</tspan><tspan x="24.82" y="0">vi</tspan><tspan class="cls-13" x="38.02" y="0">c</tspan><tspan x="45.48" y="0">e P</tspan><tspan class="cls-9" x="67.6" y="0">r</tspan><tspan x="73.96" y="0">operties</tspan></text><text class="cls-4" transform="translate(299.18 81.07) scale(1.01 1)">Se<tspan class="cls-12" x="18.07" y="0">r</tspan><tspan x="24.82" y="0">vi</tspan><tspan class="cls-13" x="38.02" y="0">c</tspan><tspan x="45.48" y="0">e</tspan></text><g class="cls-14"><rect class="cls-15" x="295.36" y="38.49" width="65.38" height="18.87" rx="2.3" ry="2.3"/></g><rect class="cls-16" x="293.94" y="39.91" width="65.38" height="18.87" rx="2.3" ry="2.3"/><circle class="cls-17" cx="305.78" cy="49.34" r="1.94"/><circle class="cls-17" cx="313.85" cy="49.34" r="1.94"/><line class="cls-18" x1="334.85" y1="49.34" x2="348.94" y2="49.34"/><text class="cls-4" transform="translate(306.2 151.57) scale(1.01 1)"><tspan class="cls-8">F</tspan><tspan x="8.49" y="0">eign</tspan></text><g class="cls-14"><rect class="cls-15" x="295.36" y="108.99" width="65.38" height="18.87" rx="2.3" ry="2.3"/></g><rect class="cls-16" x="293.94" y="110.41" width="65.38" height="18.87" rx="2.3" ry="2.3"/><circle class="cls-17" cx="305.78" cy="119.84" r="1.94"/><circle class="cls-17" cx="313.85" cy="119.84" r="1.94"/><line class="cls-18" x1="334.85" y1="119.84" x2="348.94" y2="119.84"/><text class="cls-4" transform="translate(300.49 222.07) scale(1.01 1)">Eu<tspan class="cls-9" x="18.78" y="0">r</tspan><tspan x="25.14" y="0">e</tspan><tspan class="cls-10" x="33.85" y="0">k</tspan><tspan x="42.75" y="0">a</tspan></text><g class="cls-14"><rect class="cls-15" x="295.36" y="179.49" width="65.38" height="18.87" rx="2.3" ry="2.3"/></g><rect class="cls-16" x="293.94" y="180.91" width="65.38" height="18.87" rx="2.3" ry="2.3"/><circle class="cls-17" cx="305.78" cy="190.34" r="1.94"/><circle class="cls-17" cx="313.85" cy="190.34" r="1.94"/><line class="cls-18" x1="334.85" y1="190.34" x2="348.94" y2="190.34"/></g></g></svg>