<svg xmlns="http://www.w3.org/2000/svg" viewBox="0 0 1086.11 738.85"><defs><style>.cls-1{isolation:isolate;}.cls-2{fill:#e7effc;}.cls-3{fill:#fff;}.cls-4{fill:#e7ecf2;}.cls-5{fill:#52bced;}.cls-6{font-size:16px;font-family:NotoSansCJKjp-Black-83pv-RKSJ-H, Noto Sans CJK JP;}.cls-26,.cls-6,.cls-7{fill:#3d4653;}.cls-7{font-size:15px;font-family:NotoSansCJKjp-Bold-83pv-RKSJ-H, Noto Sans CJK JP;font-weight:700;}.cls-8{letter-spacing:0.01em;}.cls-9{letter-spacing:-0.03em;}.cls-10{letter-spacing:-0.01em;}.cls-11{letter-spacing:-0.02em;}.cls-12{letter-spacing:-0.01em;}.cls-13{letter-spacing:-0.01em;}.cls-14{letter-spacing:-0.01em;}.cls-15{letter-spacing:0em;}.cls-16{letter-spacing:-0.01em;}.cls-17{letter-spacing:-0.02em;}.cls-18{letter-spacing:0em;}.cls-19{letter-spacing:-0.03em;}.cls-20{letter-spacing:-0.01em;}.cls-21{opacity:0.55;mix-blend-mode:multiply;}.cls-22{fill:#7a7a7a;}.cls-23,.cls-27,.cls-29,.cls-30,.cls-31{fill:none;stroke-miterlimit:10;}.cls-23{stroke:#fff;}.cls-23,.cls-27{stroke-linecap:round;stroke-width:2.5px;}.cls-24{letter-spacing:-0.01em;}.cls-25{letter-spacing:-0.02em;}.cls-27,.cls-29,.cls-30{stroke:#3d4653;}.cls-28{letter-spacing:0.01em;}.cls-30,.cls-31{stroke-dasharray:3 2;}.cls-31{stroke:#999;}</style></defs><title>JCConf_2018_softleader</title><g class="cls-1"><g id="圖層_1" data-name="圖層 1"><rect class="cls-2" x="283.03" y="56" width="743.18" height="625.76"/><rect class="cls-3" x="306.94" y="188" width="177.27" height="470"/><rect class="cls-3" x="820" y="185.67" width="177.27" height="470"/><rect class="cls-3" x="508.13" y="188" width="292.47" height="470"/><rect class="cls-4" x="161.16" y="75.39" width="66.79" height="85.53"/><path class="cls-5" d="M63.09,236.79A11.08,11.08,0,1,1,52,225.71a11.08,11.08,0,0,1,11.08,11.08Zm0,0"/><path class="cls-5" d="M56.71,251.81h-9.4A14.2,14.2,0,0,0,33.13,266v11.5l0,.18.79.25A64.5,64.5,0,0,0,53.23,281c10.42,0,16.46-3,16.84-3.16l.74-.38h.08V266a14.19,14.19,0,0,0-14.18-14.18Zm0,0"/><text class="cls-6" transform="translate(174.81 124.45) scale(1.01 1)">8000</text><text class="cls-7" transform="translate(467.03 149.89) scale(1.01 1)">Se<tspan class="cls-8" x="18.07" y="0">r</tspan><tspan x="24.82" y="0">vi</tspan><tspan class="cls-9" x="38.02" y="0">c</tspan><tspan x="45.48" y="0">e Dis</tspan><tspan class="cls-9" x="80.29" y="0">c</tspan><tspan class="cls-10" x="87.75" y="0">ov</tspan><tspan x="105.54" y="0">e</tspan><tspan class="cls-8" x="114.25" y="0">r</tspan><tspan x="121" y="0">y</tspan></text><text class="cls-6" transform="translate(331.77 218.89) scale(1.01 1)">G<tspan class="cls-11" x="11.73" y="0">at</tspan><tspan class="cls-12" x="27.84" y="0">e</tspan><tspan class="cls-13" x="37.23" y="0">w</tspan><tspan x="51.39" y="0">ay La</tspan><tspan class="cls-14" x="93.66" y="0">y</tspan><tspan class="cls-15" x="103.15" y="0">er</tspan></text><text class="cls-6" transform="translate(584.63 218.89) scale(1.01 1)">Comp<tspan class="cls-16" x="47.15" y="0">o</tspan><tspan x="57.25" y="0">si</tspan><tspan class="cls-17" x="70.54" y="0">t</tspan><tspan x="77.31" y="0">e La</tspan><tspan class="cls-14" x="109.76" y="0">y</tspan><tspan x="119.25" y="0">er</tspan></text><text class="cls-6" transform="translate(635.11 84.89) scale(1.01 1)">Base</text><text class="cls-6" transform="translate(851.16 218.89) scale(1.01 1)">Se<tspan class="cls-18" x="19.76" y="0">r</tspan><tspan x="27.26" y="0">vi</tspan><tspan class="cls-19" x="42.11" y="0">c</tspan><tspan x="50.18" y="0">e La</tspan><tspan class="cls-20" x="82.62" y="0">y</tspan><tspan x="92.11" y="0">er</tspan></text><rect class="cls-4" x="161.16" y="358.36" width="66.79" height="85.53"/><text class="cls-6" transform="translate(174.81 407.13) scale(1.01 1)">8080</text><g class="cls-21"><rect class="cls-22" x="501.4" y="107.31" width="65.38" height="18.87" rx="2.3" ry="2.3"/></g><rect class="cls-5" x="499.98" y="108.72" width="65.38" height="18.87" rx="2.3" ry="2.3"/><circle class="cls-3" cx="511.82" cy="118.16" r="1.94"/><circle class="cls-3" cx="519.89" cy="118.16" r="1.94"/><line class="cls-23" x1="540.89" y1="118.16" x2="554.99" y2="118.16"/><text class="cls-7" transform="translate(353.35 458.35) scale(1.01 1)">Api <tspan class="cls-24" x="27.24" y="0">R</tspan><tspan x="37.29" y="0">ou</tspan><tspan class="cls-25" x="56.23" y="0">t</tspan><tspan x="62.25" y="0">er</tspan></text><g class="cls-21"><rect class="cls-22" x="361.33" y="370.21" width="65.38" height="18.87" rx="2.3" ry="2.3"/></g><rect class="cls-5" x="359.91" y="371.63" width="65.38" height="18.87" rx="2.3" ry="2.3"/><circle class="cls-3" cx="371.74" cy="381.06" r="1.94"/><circle class="cls-3" cx="379.82" cy="381.06" r="1.94"/><line class="cls-23" x1="400.82" y1="381.06" x2="414.91" y2="381.06"/><g class="cls-21"><rect class="cls-22" x="361.33" y="392.21" width="65.38" height="18.87" rx="2.3" ry="2.3"/></g><rect class="cls-5" x="359.91" y="393.63" width="65.38" height="18.87" rx="2.3" ry="2.3"/><circle class="cls-3" cx="371.74" cy="403.06" r="1.94"/><circle class="cls-3" cx="379.82" cy="403.06" r="1.94"/><line class="cls-23" x1="400.82" y1="403.06" x2="414.91" y2="403.06"/><g class="cls-21"><rect class="cls-22" x="361.33" y="414.21" width="65.38" height="18.87" rx="2.3" ry="2.3"/></g><rect class="cls-5" x="359.91" y="415.63" width="65.38" height="18.87" rx="2.3" ry="2.3"/><circle class="cls-3" cx="371.74" cy="425.06" r="1.94"/><circle class="cls-3" cx="379.82" cy="425.06" r="1.94"/><line class="cls-23" x1="400.82" y1="425.06" x2="414.91" y2="425.06"/><text class="cls-7" transform="translate(536.77 426.36) scale(1.01 1)"><tspan class="cls-25">F</tspan><tspan x="8.49" y="0">eign</tspan></text><g class="cls-21"><rect class="cls-22" x="525.92" y="338.22" width="65.38" height="18.87" rx="2.3" ry="2.3"/></g><rect class="cls-4" x="524.5" y="339.64" width="65.38" height="18.87" rx="2.3" ry="2.3"/><circle class="cls-26" cx="536.34" cy="349.07" r="1.94"/><circle class="cls-26" cx="544.41" cy="349.07" r="1.94"/><line class="cls-27" x1="565.41" y1="349.07" x2="579.51" y2="349.07"/><g class="cls-21"><rect class="cls-22" x="525.92" y="360.22" width="65.38" height="18.87" rx="2.3" ry="2.3"/></g><rect class="cls-4" x="524.5" y="361.64" width="65.38" height="18.87" rx="2.3" ry="2.3"/><circle class="cls-26" cx="536.34" cy="371.07" r="1.94"/><circle class="cls-26" cx="544.41" cy="371.07" r="1.94"/><line class="cls-27" x1="565.41" y1="371.07" x2="579.51" y2="371.07"/><g class="cls-21"><rect class="cls-22" x="525.92" y="382.22" width="65.38" height="18.87" rx="2.3" ry="2.3"/></g><rect class="cls-4" x="524.5" y="383.64" width="65.38" height="18.87" rx="2.3" ry="2.3"/><circle class="cls-26" cx="536.34" cy="393.07" r="1.94"/><circle class="cls-26" cx="544.41" cy="393.07" r="1.94"/><line class="cls-27" x1="565.41" y1="393.07" x2="579.51" y2="393.07"/><text class="cls-7" transform="translate(706.57 345.75) scale(1.01 1)"><tspan class="cls-25">F</tspan><tspan x="8.49" y="0">eign</tspan></text><g class="cls-21"><rect class="cls-22" x="695.73" y="257.61" width="65.38" height="18.87" rx="2.3" ry="2.3"/></g><rect class="cls-4" x="694.31" y="259.02" width="65.38" height="18.87" rx="2.3" ry="2.3"/><circle class="cls-26" cx="706.15" cy="268.46" r="1.94"/><circle class="cls-26" cx="714.22" cy="268.46" r="1.94"/><line class="cls-27" x1="735.22" y1="268.46" x2="749.32" y2="268.46"/><g class="cls-21"><rect class="cls-22" x="695.73" y="279.61" width="65.38" height="18.87" rx="2.3" ry="2.3"/></g><rect class="cls-4" x="694.31" y="281.02" width="65.38" height="18.87" rx="2.3" ry="2.3"/><circle class="cls-26" cx="706.15" cy="290.46" r="1.94"/><circle class="cls-26" cx="714.22" cy="290.46" r="1.94"/><line class="cls-27" x1="735.22" y1="290.46" x2="749.32" y2="290.46"/><g class="cls-21"><rect class="cls-22" x="695.73" y="301.61" width="65.38" height="18.87" rx="2.3" ry="2.3"/></g><rect class="cls-4" x="694.31" y="303.02" width="65.38" height="18.87" rx="2.3" ry="2.3"/><circle class="cls-26" cx="706.15" cy="312.46" r="1.94"/><circle class="cls-26" cx="714.22" cy="312.46" r="1.94"/><line class="cls-27" x1="735.22" y1="312.46" x2="749.32" y2="312.46"/><text class="cls-7" transform="translate(706.57 632.01) scale(1.01 1)"><tspan class="cls-25">F</tspan><tspan x="8.49" y="0">eign</tspan></text><g class="cls-21"><rect class="cls-22" x="695.73" y="543.86" width="65.38" height="18.87" rx="2.3" ry="2.3"/></g><rect class="cls-5" x="694.31" y="545.28" width="65.38" height="18.87" rx="2.3" ry="2.3"/><circle class="cls-3" cx="706.15" cy="554.72" r="1.94"/><circle class="cls-3" cx="714.22" cy="554.72" r="1.94"/><line class="cls-23" x1="735.22" y1="554.72" x2="749.32" y2="554.72"/><g class="cls-21"><rect class="cls-22" x="695.73" y="565.86" width="65.38" height="18.87" rx="2.3" ry="2.3"/></g><rect class="cls-5" x="694.31" y="567.28" width="65.38" height="18.87" rx="2.3" ry="2.3"/><circle class="cls-3" cx="706.15" cy="576.72" r="1.94"/><circle class="cls-3" cx="714.22" cy="576.72" r="1.94"/><line class="cls-23" x1="735.22" y1="576.72" x2="749.32" y2="576.72"/><g class="cls-21"><rect class="cls-22" x="695.73" y="587.86" width="65.38" height="18.87" rx="2.3" ry="2.3"/></g><rect class="cls-5" x="694.31" y="589.28" width="65.38" height="18.87" rx="2.3" ry="2.3"/><circle class="cls-3" cx="706.15" cy="598.72" r="1.94"/><circle class="cls-3" cx="714.22" cy="598.72" r="1.94"/><line class="cls-23" x1="735.22" y1="598.72" x2="749.32" y2="598.72"/><text class="cls-7" transform="translate(773.02 149.89) scale(1.01 1)">Config Se<tspan class="cls-28" x="69.73" y="0">r</tspan><tspan class="cls-10" x="76.48" y="0">v</tspan><tspan x="85" y="0">er</tspan></text><g class="cls-21"><rect class="cls-22" x="792.53" y="107.31" width="65.38" height="18.87" rx="2.3" ry="2.3"/></g><rect class="cls-5" x="791.11" y="108.72" width="65.38" height="18.87" rx="2.3" ry="2.3"/><circle class="cls-3" cx="802.95" cy="118.16" r="1.94"/><circle class="cls-3" cx="811.02" cy="118.16" r="1.94"/><line class="cls-23" x1="832.02" y1="118.16" x2="846.11" y2="118.16"/><text class="cls-7" transform="translate(878.95 301.61) scale(1.01 1)">Se<tspan class="cls-8" x="18.07" y="0">r</tspan><tspan x="24.82" y="0">vi</tspan><tspan class="cls-9" x="38.02" y="0">c</tspan><tspan x="45.48" y="0">e</tspan></text><g class="cls-21"><rect class="cls-22" x="875.12" y="259.02" width="65.38" height="18.87" rx="2.3" ry="2.3"/></g><rect class="cls-4" x="873.71" y="260.44" width="65.38" height="18.87" rx="2.3" ry="2.3"/><circle class="cls-26" cx="885.54" cy="269.88" r="1.94"/><circle class="cls-26" cx="893.61" cy="269.88" r="1.94"/><line class="cls-27" x1="914.62" y1="269.88" x2="928.71" y2="269.88"/><text class="cls-7" transform="translate(878.95 367.23) scale(1.01 1)">Se<tspan class="cls-8" x="18.07" y="0">r</tspan><tspan x="24.82" y="0">vi</tspan><tspan class="cls-9" x="38.02" y="0">c</tspan><tspan x="45.48" y="0">e</tspan></text><g class="cls-21"><rect class="cls-22" x="875.12" y="324.65" width="65.38" height="18.87" rx="2.3" ry="2.3"/></g><rect class="cls-4" x="873.71" y="326.07" width="65.38" height="18.87" rx="2.3" ry="2.3"/><circle class="cls-26" cx="885.54" cy="335.5" r="1.94"/><circle class="cls-26" cx="893.61" cy="335.5" r="1.94"/><line class="cls-27" x1="914.62" y1="335.5" x2="928.71" y2="335.5"/><text class="cls-7" transform="translate(878.95 432.86) scale(1.01 1)">Se<tspan class="cls-8" x="18.07" y="0">r</tspan><tspan x="24.82" y="0">vi</tspan><tspan class="cls-9" x="38.02" y="0">c</tspan><tspan x="45.48" y="0">e</tspan></text><g class="cls-21"><rect class="cls-22" x="875.12" y="390.28" width="65.38" height="18.87" rx="2.3" ry="2.3"/></g><rect class="cls-4" x="873.71" y="391.69" width="65.38" height="18.87" rx="2.3" ry="2.3"/><circle class="cls-26" cx="885.54" cy="401.13" r="1.94"/><circle class="cls-26" cx="893.61" cy="401.13" r="1.94"/><line class="cls-27" x1="914.62" y1="401.13" x2="928.71" y2="401.13"/><text class="cls-7" transform="translate(878.95 498.49) scale(1.01 1)">Se<tspan class="cls-8" x="18.07" y="0">r</tspan><tspan x="24.82" y="0">vi</tspan><tspan class="cls-9" x="38.02" y="0">c</tspan><tspan x="45.48" y="0">e</tspan></text><g class="cls-21"><rect class="cls-22" x="875.12" y="455.9" width="65.38" height="18.87" rx="2.3" ry="2.3"/></g><rect class="cls-4" x="873.71" y="457.32" width="65.38" height="18.87" rx="2.3" ry="2.3"/><circle class="cls-26" cx="885.54" cy="466.76" r="1.94"/><circle class="cls-26" cx="893.61" cy="466.76" r="1.94"/><line class="cls-27" x1="914.62" y1="466.76" x2="928.71" y2="466.76"/><text class="cls-7" transform="translate(878.95 564.11) scale(1.01 1)">Se<tspan class="cls-8" x="18.07" y="0">r</tspan><tspan x="24.82" y="0">vi</tspan><tspan class="cls-9" x="38.02" y="0">c</tspan><tspan x="45.48" y="0">e</tspan></text><g class="cls-21"><rect class="cls-22" x="875.12" y="521.53" width="65.38" height="18.87" rx="2.3" ry="2.3"/></g><rect class="cls-5" x="873.71" y="522.95" width="65.38" height="18.87" rx="2.3" ry="2.3"/><circle class="cls-3" cx="885.54" cy="532.38" r="1.94"/><circle class="cls-3" cx="893.61" cy="532.38" r="1.94"/><line class="cls-23" x1="914.62" y1="532.38" x2="928.71" y2="532.38"/><text class="cls-7" transform="translate(878.95 629.74) scale(1.01 1)">Se<tspan class="cls-8" x="18.07" y="0">r</tspan><tspan x="24.82" y="0">vi</tspan><tspan class="cls-9" x="38.02" y="0">c</tspan><tspan x="45.48" y="0">e</tspan></text><g class="cls-21"><rect class="cls-22" x="875.12" y="587.15" width="65.38" height="18.87" rx="2.3" ry="2.3"/></g><rect class="cls-5" x="873.71" y="588.57" width="65.38" height="18.87" rx="2.3" ry="2.3"/><circle class="cls-3" cx="885.54" cy="598.01" r="1.94"/><circle class="cls-3" cx="893.61" cy="598.01" r="1.94"/><line class="cls-23" x1="914.62" y1="598.01" x2="928.71" y2="598.01"/><rect class="cls-29" x="149.99" y="34" width="902.22" height="672.86"/><polyline class="cls-30" points="157.47 124.18 79.24 251.81 157.86 400.89"/><polygon class="cls-26" points="161.16 118.16 152.49 124.52 157.19 124.63 159.42 128.77 161.16 118.16"/><polygon class="cls-26" points="161.16 407.13 152.92 400.23 157.62 400.42 160.11 396.44 161.16 407.13"/><line class="cls-31" x1="227.95" y1="118.16" x2="499.23" y2="118.16"/><line class="cls-31" x1="227.95" y1="403.06" x2="359.91" y2="403.06"/><polyline class="cls-31" points="524.5 371.07 425.29 403.06 694.31 576.72"/><polyline class="cls-31" points="873.71 270.4 759.69 290.46 873.71 335.5"/><polyline class="cls-31" points="759.69 290.46 873.71 401.13 589.88 370.43 694.31 290.46"/><polyline class="cls-31" points="589.88 370.43 873.71 532.38 759.69 576.72 873.71 598.01"/></g></g></svg>