<svg xmlns="http://www.w3.org/2000/svg" viewBox="0 0 928 482.39"><defs><style>.cls-1{isolation:isolate;}.cls-16,.cls-2,.cls-9{fill:none;stroke-miterlimit:10;}.cls-2{stroke:#999;stroke-width:2px;stroke-dasharray:3 2;}.cls-3{fill:#999;}.cls-4{fill:#eeeff5;}.cls-5{opacity:0.55;mix-blend-mode:multiply;}.cls-6{fill:#7a7a7a;}.cls-7{fill:#e7ecf2;}.cls-18,.cls-27,.cls-31,.cls-40,.cls-8{fill:#3d4653;}.cls-9{stroke:#3d4653;}.cls-16,.cls-9{stroke-linecap:round;stroke-width:2.5px;}.cls-10,.cls-27{font-size:17px;}.cls-10{fill:#3978bc;}.cls-10,.cls-24,.cls-27,.cls-40{font-family:NotoSansCJKjp-Black-83pv-RKSJ-H, Noto Sans CJK JP;}.cls-11{letter-spacing:-0.01em;}.cls-12{letter-spacing:-0.01em;}.cls-13{letter-spacing:0em;}.cls-14{fill:#52bced;}.cls-15,.cls-24{fill:#fff;}.cls-16{stroke:#fff;}.cls-17{fill:#748094;}.cls-18,.cls-31{font-size:15px;}.cls-18,.cls-34,.cls-36,.cls-37{font-family:NotoSansCJKjp-Bold-83pv-RKSJ-H, Noto Sans CJK JP;font-weight:700;}.cls-19{letter-spacing:-0.01em;}.cls-20{letter-spacing:0em;}.cls-21{letter-spacing:-0.01em;}.cls-22{letter-spacing:0.01em;}.cls-23{letter-spacing:-0.03em;}.cls-24{font-size:19.39px;}.cls-25{letter-spacing:-0.01em;}.cls-26{letter-spacing:-0.02em;}.cls-28{letter-spacing:0em;}.cls-29{letter-spacing:-0.03em;}.cls-30{fill:#e7eafc;}.cls-31{font-family:NotoSansCJKjp-Medium-83pv-RKSJ-H, Noto Sans CJK JP;}.cls-32{letter-spacing:0.02em;}.cls-33{letter-spacing:-0.03em;}.cls-34{fill:#39b54a;}.cls-35{letter-spacing:-0.01em;}.cls-36,.cls-37{fill:#c1272d;}.cls-37{letter-spacing:0em;}.cls-38{letter-spacing:-0.01em;}.cls-39{letter-spacing:0em;}.cls-40{font-size:17.28px;}.cls-41{letter-spacing:0em;}.cls-42{letter-spacing:-0.01em;}.cls-43{letter-spacing:-0.02em;}</style></defs><title>JCConf_2018_softleader</title><g class="cls-1"><g id="圖層_1" data-name="圖層 1"><line class="cls-2" x1="804.22" y1="72.65" x2="638.55" y2="207.97"/><polygon class="cls-3" points="633.09 212.44 638.22 202.99 638.96 207.64 643.36 209.29 633.09 212.44"/><line class="cls-2" x1="266" y1="60.08" x2="33.06" y2="60.08"/><polygon class="cls-3" points="26 60.08 35.95 56.02 33.59 60.08 35.95 64.15 26 60.08"/><line class="cls-2" x1="812.54" y1="60.08" x2="353.5" y2="60.08"/><polygon class="cls-3" points="819.6 60.08 809.65 56.02 812.01 60.08 809.65 64.15 819.6 60.08"/><rect class="cls-4" x="504.5" y="38.08" width="153.29" height="44"/><rect class="cls-4" x="688.56" y="124.04" width="136.55" height="44"/><rect class="cls-4" x="353.5" y="168.19" width="120.67" height="44"/><g class="cls-5"><rect class="cls-6" x="278.45" y="49.23" width="65.38" height="18.87" rx="2.3" ry="2.3"/></g><rect class="cls-7" x="277.03" y="50.65" width="65.38" height="18.87" rx="2.3" ry="2.3"/><circle class="cls-8" cx="288.87" cy="60.08" r="1.94"/><circle class="cls-8" cx="296.94" cy="60.08" r="1.94"/><line class="cls-9" x1="317.94" y1="60.08" x2="332.04" y2="60.08"/><text class="cls-10" transform="translate(555.9 281.62) scale(1.01 1)">Eu<tspan class="cls-11" x="21.83" y="0">r</tspan><tspan x="29.51" y="0">e</tspan><tspan class="cls-12" x="39.64" y="0">k</tspan><tspan class="cls-13" x="50.22" y="0">a</tspan></text><g class="cls-5"><rect class="cls-6" x="555.28" y="236.03" width="65.38" height="18.87" rx="2.3" ry="2.3"/></g><rect class="cls-14" x="553.86" y="237.45" width="65.38" height="18.87" rx="2.3" ry="2.3"/><circle class="cls-15" cx="565.7" cy="246.89" r="1.94"/><circle class="cls-15" cx="573.77" cy="246.89" r="1.94"/><line class="cls-16" x1="594.77" y1="246.89" x2="608.87" y2="246.89"/><g class="cls-5"><rect class="cls-6" x="830.89" y="48.28" width="65.38" height="18.87" rx="2.3" ry="2.3"/></g><rect class="cls-14" x="829.47" y="49.7" width="65.38" height="18.87" rx="2.3" ry="2.3"/><circle class="cls-15" cx="841.3" cy="59.13" r="1.94"/><circle class="cls-15" cx="849.38" cy="59.13" r="1.94"/><line class="cls-16" x1="870.38" y1="59.13" x2="884.47" y2="59.13"/><line class="cls-2" x1="368.88" y1="72.65" x2="534.55" y2="207.97"/><polygon class="cls-3" points="540.02 212.44 529.74 209.29 534.14 207.64 534.88 203 540.02 212.44"/><rect class="cls-17" x="430.95" y="124.97" width="35.14" height="35.14" rx="17.57" ry="17.57"/><text class="cls-18" transform="translate(399.75 185.91) scale(1.01 1)">G<tspan class="cls-19" x="10.76" y="0">e</tspan><tspan class="cls-20" x="19.29" y="0">t IP </tspan><tspan class="cls-21" x="47.35" y="0">b</tspan><tspan x="56.89" y="0">y</tspan><tspan x="-31.96" y="19">Se</tspan><tspan class="cls-22" x="-13.89" y="19">r</tspan><tspan x="-7.14" y="19">vi</tspan><tspan class="cls-23" x="6.06" y="19">c</tspan><tspan x="13.52" y="19">eName</tspan></text><text class="cls-24" transform="translate(442.54 150.26) scale(1.01 1)">2</text><rect class="cls-17" x="516.52" y="43.5" width="35.14" height="35.14" rx="17.57" ry="17.57"/><text class="cls-18" transform="translate(563.52 68.79) scale(1.01 1)">Call Se<tspan class="cls-22" x="49.65" y="0">r</tspan><tspan x="56.4" y="0">vi</tspan><tspan class="cls-23" x="69.6" y="0">c</tspan><tspan x="77.05" y="0">e</tspan></text><text class="cls-24" transform="translate(528.11 68.79) scale(1.01 1)">3</text><rect class="cls-4" x="87.84" y="38.08" width="133.54" height="44"/><rect class="cls-17" x="96.82" y="43.5" width="35.14" height="35.14" rx="17.57" ry="17.57"/><text class="cls-18" transform="translate(143.82 68.79) scale(1.01 1)"><tspan class="cls-25">R</tspan><tspan x="10.05" y="0">esponse</tspan></text><text class="cls-24" transform="translate(108.41 68.79) scale(1.01 1)">4</text><rect class="cls-17" x="705.79" y="124.97" width="35.14" height="35.14" rx="17.57" ry="17.57"/><text class="cls-18" transform="translate(752.79 150.26) scale(1.01 1)"><tspan class="cls-25">Re</tspan><tspan x="18.59" y="0">gi</tspan><tspan class="cls-26" x="32.1" y="0">s</tspan><tspan class="cls-20" x="39.18" y="0">t</tspan><tspan class="cls-22" x="45.48" y="0">r</tspan><tspan x="52.23" y="0">y</tspan></text><text class="cls-24" transform="translate(717.38 150.26) scale(1.01 1)">1</text><text class="cls-27" transform="translate(265.2 93.86) scale(1.01 1)">Consumer</text><text class="cls-10" transform="translate(830.03 93.86) scale(1.01 1)">Se<tspan class="cls-28" x="20.99" y="0">r</tspan><tspan x="28.97" y="0">vi</tspan><tspan class="cls-29" x="44.74" y="0">c</tspan><tspan x="53.31" y="0">e</tspan></text><rect class="cls-30" x="454.45" y="296.63" width="264.21" height="166.83"/><text class="cls-31" transform="translate(473.45 351.47) scale(1.01 1)">4ae3e7a05015:se<tspan class="cls-32" x="122.74" y="0">r</tspan><tspan x="129.21" y="0">vi</tspan><tspan class="cls-33" x="141.69" y="0">c</tspan><tspan x="149.05" y="0">e:80 </tspan><tspan class="cls-34" x="182.47" y="0">UP</tspan><tspan x="0" y="20">17183c2abd51:se</tspan><tspan class="cls-32" x="123.81" y="20">r</tspan><tspan x="130.27" y="20">vi</tspan><tspan class="cls-33" x="142.75" y="20">c</tspan><tspan x="150.12" y="20">e:80 </tspan><tspan class="cls-34" x="183.54" y="20">UP</tspan><tspan x="0" y="40">a</tspan><tspan class="cls-35" x="8.63" y="40">f</tspan><tspan x="13.64" y="40">d2591e7</tspan><tspan class="cls-35" x="74.31" y="40">f</tspan><tspan x="79.32" y="40">d3:se</tspan><tspan class="cls-32" x="117.46" y="40">r</tspan><tspan x="123.93" y="40">vi</tspan><tspan class="cls-33" x="136.41" y="40">c</tspan><tspan x="143.77" y="40">e:80 </tspan><tspan class="cls-36" x="177.19" y="40">D</tspan><tspan class="cls-37" x="187.9" y="40">O</tspan><tspan class="cls-36" x="199.41" y="40">WN</tspan><tspan x="0" y="60">86b956c0a637:</tspan><tspan class="cls-38" x="107.23" y="60">f</tspan><tspan x="112.24" y="60">eign:80 </tspan><tspan class="cls-34" x="168" y="60">UP</tspan><tspan x="0" y="80">db3021028a34:</tspan><tspan class="cls-38" x="108.93" y="80">f</tspan><tspan class="cls-39" x="113.94" y="80">eign:80 </tspan><tspan class="cls-34" x="169.69" y="80">UP</tspan><tspan x="0" y="100">...</tspan></text><text class="cls-40" transform="translate(538.97 324.26) scale(1.01 1)">Se<tspan class="cls-41" x="21.33" y="0">r</tspan><tspan class="cls-42" x="29.44" y="0">v</tspan><tspan x="39.73" y="0">er Li</tspan><tspan class="cls-43" x="77.86" y="0">s</tspan><tspan x="86.27" y="0">t</tspan></text></g></g></svg>