<svg xmlns="http://www.w3.org/2000/svg" viewBox="0 0 433 196"><defs><style>.cls-1{isolation:isolate;}.cls-10,.cls-15,.cls-17,.cls-2{fill:none;}.cls-2{stroke:#52bced;stroke-width:2px;}.cls-10,.cls-13,.cls-15,.cls-17,.cls-2{stroke-miterlimit:10;}.cls-3{font-size:15px;font-family:NotoSansCJKjp-Bold-83pv-RKSJ-H, Noto Sans CJK JP;font-weight:700;}.cls-14,.cls-16,.cls-3{fill:#3d4653;}.cls-4{letter-spacing:0.01em;}.cls-5{letter-spacing:-0.03em;}.cls-6{opacity:0.55;mix-blend-mode:multiply;}.cls-7{fill:#7a7a7a;}.cls-8{fill:#52bced;}.cls-9{fill:#fff;}.cls-10{stroke:#fff;stroke-linecap:round;stroke-width:2.5px;}.cls-11{letter-spacing:-0.01em;}.cls-12{letter-spacing:-0.02em;}.cls-13{fill:#e7ecf2;}.cls-13,.cls-15,.cls-17{stroke:#3d4653;}.cls-13,.cls-14{opacity:0.3;}.cls-17{stroke-dasharray:3 2;}.cls-18{letter-spacing:-0.01em;}.cls-19{letter-spacing:-0.02em;}</style></defs><title>JCConf_2018_softleader</title><g class="cls-1"><g id="圖層_1" data-name="圖層 1"><rect class="cls-2" x="143.48" y="18.91" width="156.53" height="156.53"/><text class="cls-3" transform="translate(357.9 89.08) scale(1.01 1)">Se<tspan class="cls-4" x="18.07" y="0">r</tspan><tspan x="24.82" y="0">vi</tspan><tspan class="cls-5" x="38.02" y="0">c</tspan><tspan x="45.48" y="0">e</tspan></text><g class="cls-6"><rect class="cls-7" x="354.07" y="46.5" width="65.38" height="18.87" rx="2.3" ry="2.3"/></g><rect class="cls-8" x="352.66" y="47.92" width="65.38" height="18.87" rx="2.3" ry="2.3"/><circle class="cls-9" cx="364.49" cy="57.35" r="1.94"/><circle class="cls-9" cx="372.56" cy="57.35" r="1.94"/><line class="cls-10" x1="393.56" y1="57.35" x2="407.66" y2="57.35"/><text class="cls-3" transform="translate(345.14 159.58) scale(1.01 1)">Comp<tspan class="cls-11" x="43.36" y="0">o</tspan><tspan x="52.68" y="0">si</tspan><tspan class="cls-12" x="64.66" y="0">t</tspan><tspan x="70.68" y="0">e</tspan><tspan x="12.6" y="17">Se</tspan><tspan class="cls-4" x="30.68" y="17">r</tspan><tspan x="37.42" y="17">vi</tspan><tspan class="cls-5" x="50.62" y="17">c</tspan><tspan x="58.08" y="17">e</tspan></text><g class="cls-6"><rect class="cls-7" x="354.07" y="117" width="65.38" height="18.87" rx="2.3" ry="2.3"/></g><rect class="cls-8" x="352.66" y="118.42" width="65.38" height="18.87" rx="2.3" ry="2.3"/><circle class="cls-9" cx="364.49" cy="127.85" r="1.94"/><circle class="cls-9" cx="372.56" cy="127.85" r="1.94"/><line class="cls-10" x1="393.56" y1="127.85" x2="407.66" y2="127.85"/><line class="cls-13" x1="143.48" y1="73.25" x2="300.01" y2="73.25"/><text class="cls-3" transform="translate(152.37 42.75) scale(1.01 1)">Comp<tspan class="cls-11" x="43.36" y="0">o</tspan><tspan x="52.68" y="0">si</tspan><tspan class="cls-12" x="64.66" y="0">t</tspan><tspan x="70.68" y="0">e Se</tspan><tspan class="cls-4" x="100.87" y="0">r</tspan><tspan x="107.62" y="0">vi</tspan><tspan class="cls-5" x="120.82" y="0">c</tspan><tspan x="128.28" y="0">e</tspan><tspan x="42.66" y="17">(</tspan><tspan class="cls-12" x="48.33" y="17">F</tspan><tspan x="56.82" y="17">eign)</tspan></text><rect class="cls-14" x="234.98" y="84.75" width="42" height="19"/><rect class="cls-14" x="234.98" y="115.25" width="42" height="19"/><rect class="cls-14" x="234.98" y="145.75" width="42" height="19"/><line class="cls-15" x1="255.98" y1="103.75" x2="255.98" y2="111.72"/><polygon class="cls-16" points="255.98 115.25 253.95 110.28 255.98 111.46 258.01 110.28 255.98 115.25"/><line class="cls-15" x1="255.98" y1="134.25" x2="255.98" y2="142.22"/><polygon class="cls-16" points="255.98 145.75 253.95 140.78 255.98 141.96 258.01 140.78 255.98 145.75"/><polyline class="cls-17" points="234.98 155.25 174.82 155.25 149.56 136.46"/><polygon class="cls-16" points="143.9 132.25 154.31 134.93 149.99 136.78 149.46 141.45 143.9 132.25"/><polyline class="cls-17" points="227.92 94.25 174.82 94.25 143.9 117.25"/><polygon class="cls-16" points="234.98 94.25 225.03 90.19 227.39 94.25 225.03 98.31 234.98 94.25"/><line class="cls-17" x1="129.93" y1="124.53" x2="15.05" y2="124.53"/><polygon class="cls-16" points="136.99 124.53 127.04 120.47 129.4 124.53 127.04 128.6 136.99 124.53"/><polygon class="cls-16" points="7.99 124.53 17.94 120.47 15.57 124.53 17.94 128.6 7.99 124.53"/><text class="cls-3" transform="translate(31.98 109.97) scale(1.01 1)"><tspan class="cls-18">R</tspan><tspan x="10.05" y="0">e</tspan><tspan class="cls-19" x="18.76" y="0">s</tspan><tspan x="25.85" y="0">tful API</tspan></text><line class="cls-17" x1="276.98" y1="94.25" x2="352.66" y2="57.35"/><line class="cls-17" x1="276.98" y1="124.53" x2="352.66" y2="127.85"/></g></g></svg>