<svg xmlns="http://www.w3.org/2000/svg" viewBox="0 0 704.21 435.04"><defs><style>.cls-1{isolation:isolate;}.cls-11,.cls-2,.cls-26{fill:none;stroke-miterlimit:10;}.cls-2,.cls-26{stroke:#3d4653;}.cls-3{font-size:21.42px;}.cls-16,.cls-20,.cls-27,.cls-28,.cls-3{fill:#3d4653;}.cls-19,.cls-20,.cls-3{font-family:NotoSansCJKjp-Black-83pv-RKSJ-H, Noto Sans CJK JP;}.cls-4{letter-spacing:0em;}.cls-5{letter-spacing:-0.03em;}.cls-6{letter-spacing:0em;}.cls-7{opacity:0.55;mix-blend-mode:multiply;}.cls-8{fill:#7a7a7a;}.cls-9{fill:#52bced;}.cls-10,.cls-19{fill:#fff;}.cls-11{stroke:#fff;stroke-linecap:round;stroke-width:3.02px;}.cls-12{letter-spacing:-0.02em;}.cls-13{letter-spacing:-0.01em;}.cls-14{fill:#8a80bb;}.cls-15{fill:#e7eafc;}.cls-16{font-size:15px;font-family:NotoSansCJKjp-Medium-83pv-RKSJ-H, Noto Sans CJK JP;}.cls-17{letter-spacing:0.02em;}.cls-18{letter-spacing:-0.03em;}.cls-19{font-size:17px;}.cls-20{font-size:17.28px;}.cls-21{letter-spacing:0em;}.cls-22{letter-spacing:-0.01em;}.cls-23{letter-spacing:-0.02em;}.cls-24{fill:#e7ecf2;}.cls-25{letter-spacing:-0.02em;}.cls-26{stroke-dasharray:3 2;}.cls-28{font-size:16px;font-family:NotoSansCJKjp-Bold-83pv-RKSJ-H, Noto Sans CJK JP;font-weight:700;}</style></defs><title>JCConf_2018_softleader</title><g class="cls-1"><g id="圖層_1" data-name="圖層 1"><rect class="cls-2" x="33.13" y="40.14" width="451.08" height="353.61"/><text class="cls-3" transform="translate(580.32 393.75) scale(0.93 1)">Se<tspan class="cls-4" x="26.46" y="0">r</tspan><tspan x="36.5" y="0">vi</tspan><tspan class="cls-5" x="56.38" y="0">c</tspan><tspan class="cls-6" x="67.18" y="0">e</tspan></text><g class="cls-7"><rect class="cls-8" x="581.38" y="282.74" width="75.91" height="23.79" rx="2.79" ry="2.79"/></g><rect class="cls-9" x="579.67" y="284.46" width="75.91" height="23.79" rx="2.79" ry="2.79"/><ellipse class="cls-10" cx="593.41" cy="296.35" rx="2.25" ry="2.44"/><ellipse class="cls-10" cx="602.78" cy="296.35" rx="2.25" ry="2.44"/><line class="cls-11" x1="627.17" y1="296.35" x2="643.53" y2="296.35"/><g class="cls-7"><rect class="cls-8" x="581.38" y="310.47" width="75.91" height="23.79" rx="2.79" ry="2.79"/></g><rect class="cls-9" x="579.67" y="312.18" width="75.91" height="23.79" rx="2.79" ry="2.79"/><ellipse class="cls-10" cx="593.41" cy="324.07" rx="2.25" ry="2.44"/><ellipse class="cls-10" cx="602.78" cy="324.07" rx="2.25" ry="2.44"/><line class="cls-11" x1="627.17" y1="324.07" x2="643.53" y2="324.07"/><g class="cls-7"><rect class="cls-8" x="581.38" y="338.19" width="75.91" height="23.79" rx="2.79" ry="2.79"/></g><rect class="cls-9" x="579.67" y="339.9" width="75.91" height="23.79" rx="2.79" ry="2.79"/><ellipse class="cls-10" cx="593.41" cy="351.8" rx="2.25" ry="2.44"/><ellipse class="cls-10" cx="602.78" cy="351.8" rx="2.25" ry="2.44"/><line class="cls-11" x1="627.17" y1="351.8" x2="643.53" y2="351.8"/><text class="cls-3" transform="translate(97.74 144.29) scale(0.93 1)"><tspan class="cls-12">F</tspan><tspan x="12.47" y="0">eign</tspan></text><g class="cls-7"><rect class="cls-8" x="89.22" y="86.91" width="75.91" height="23.79" rx="2.79" ry="2.79"/></g><rect class="cls-9" x="87.51" y="88.63" width="75.91" height="23.79" rx="2.79" ry="2.79"/><ellipse class="cls-10" cx="101.25" cy="100.52" rx="2.25" ry="2.44"/><ellipse class="cls-10" cx="110.62" cy="100.52" rx="2.25" ry="2.44"/><line class="cls-11" x1="135" y1="100.52" x2="151.37" y2="100.52"/><text class="cls-3" transform="translate(582.04 121.67) scale(0.93 1)">Eu<tspan class="cls-13" x="27.51" y="0">r</tspan><tspan x="37.19" y="0">e</tspan><tspan class="cls-13" x="49.96" y="0">k</tspan><tspan x="63.28" y="0">a</tspan></text><g class="cls-7"><rect class="cls-8" x="581.38" y="64.29" width="75.91" height="23.79" rx="2.79" ry="2.79"/></g><rect class="cls-9" x="579.67" y="66.01" width="75.91" height="23.79" rx="2.79" ry="2.79"/><ellipse class="cls-10" cx="593.41" cy="77.9" rx="2.25" ry="2.44"/><ellipse class="cls-10" cx="602.78" cy="77.9" rx="2.25" ry="2.44"/><line class="cls-11" x1="627.17" y1="77.9" x2="643.53" y2="77.9"/><rect class="cls-14" x="288.62" y="170.85" width="174.26" height="36.29"/><rect class="cls-15" x="288.62" y="207.14" width="174.26" height="110.5"/><text class="cls-16" transform="translate(306.8 261.98) scale(1.01 1)">1. Se<tspan class="cls-17" x="33.99" y="0">r</tspan><tspan x="40.45" y="0">vi</tspan><tspan class="cls-18" x="52.93" y="0">c</tspan><tspan x="60.3" y="0">e : 10.0.0.4</tspan><tspan x="0" y="20">2. Se</tspan><tspan class="cls-17" x="33.99" y="20">r</tspan><tspan x="40.45" y="20">vi</tspan><tspan class="cls-18" x="52.93" y="20">c</tspan><tspan x="60.3" y="20">e : 10.0.0.5</tspan><tspan x="0" y="40">3. Se</tspan><tspan class="cls-17" x="33.99" y="40">r</tspan><tspan x="40.45" y="40">vi</tspan><tspan class="cls-18" x="52.93" y="40">c</tspan><tspan x="60.3" y="40">e : 10.0.0.6</tspan></text><text class="cls-19" transform="translate(344.41 195.9) scale(1.01 1)">Ribbon</text><text class="cls-20" transform="translate(328.16 234.78) scale(1.01 1)">Se<tspan class="cls-21" x="21.33" y="0">r</tspan><tspan class="cls-22" x="29.44" y="0">v</tspan><tspan x="39.73" y="0">er Li</tspan><tspan class="cls-23" x="77.86" y="0">s</tspan><tspan x="86.27" y="0">t</tspan></text><rect class="cls-24" x="55.02" y="170.85" width="146.79" height="146.79"/><text class="cls-20" transform="translate(77.74 250.25) scale(1.01 1)"><tspan class="cls-25">F</tspan><tspan x="10.05" y="0">eignClient</tspan></text><line class="cls-26" x1="201.81" y1="250.25" x2="275.97" y2="250.25"/><polygon class="cls-27" points="283.03 250.25 273.08 254.31 275.44 250.25 273.08 246.18 283.03 250.25"/><line class="cls-26" x1="484.21" y1="203.14" x2="555.65" y2="104.91"/><polygon class="cls-27" points="559.8 99.2 557.24 109.64 555.34 105.34 550.66 104.86 559.8 99.2"/><line class="cls-26" x1="484.21" y1="256.14" x2="555.54" y2="350.42"/><polygon class="cls-27" points="559.8 356.05 550.55 350.57 555.22 350 557.04 345.67 559.8 356.05"/><rect class="cls-10" x="498.88" y="295.52" width="46.25" height="21.15"/><text class="cls-28" transform="translate(507.16 310.99) scale(1.01 1)">Call</text></g></g></svg>