<svg xmlns="http://www.w3.org/2000/svg" viewBox="0 0 928 482.39"><defs><style>.cls-1{isolation:isolate;}.cls-14,.cls-2{fill:none;stroke-miterlimit:10;}.cls-2{stroke:#999;stroke-width:2px;stroke-dasharray:3 2;}.cls-3{fill:#999;}.cls-4{fill:#eeeff5;}.cls-5{font-size:17px;fill:#3978bc;}.cls-25,.cls-5{font-family:NotoSansCJKjp-Black-83pv-RKSJ-H, Noto Sans CJK JP;}.cls-6{letter-spacing:-0.02em;}.cls-7{letter-spacing:-0.01em;}.cls-8{letter-spacing:-0.01em;}.cls-9{letter-spacing:0em;}.cls-10{opacity:0.55;mix-blend-mode:multiply;}.cls-11{fill:#7a7a7a;}.cls-12{fill:#52bced;}.cls-13,.cls-25{fill:#fff;}.cls-14{stroke:#fff;stroke-linecap:round;stroke-width:2.5px;}.cls-15{letter-spacing:-0.01em;}.cls-16{letter-spacing:0em;}.cls-17{letter-spacing:-0.03em;}.cls-18{fill:#748094;}.cls-19{font-size:15px;fill:#3d4653;font-family:NotoSansCJKjp-Bold-83pv-RKSJ-H, Noto Sans CJK JP;font-weight:700;}.cls-20{letter-spacing:-0.01em;}.cls-21{letter-spacing:0em;}.cls-22{letter-spacing:-0.01em;}.cls-23{letter-spacing:-0.02em;}.cls-24{letter-spacing:0em;}.cls-25{font-size:19.39px;}.cls-26{letter-spacing:-0.01em;}.cls-27{letter-spacing:0.01em;}.cls-28{letter-spacing:-0.03em;}.cls-29{letter-spacing:-0.01em;}.cls-30{letter-spacing:-0.02em;}</style></defs><title>JCConf_2018_softleader</title><g class="cls-1"><g id="圖層_1" data-name="圖層 1"><line class="cls-2" x1="368.88" y1="203.09" x2="534.55" y2="67.76"/><polygon class="cls-3" points="540.02 63.3 534.88 72.74 534.14 68.1 529.74 66.44 540.02 63.3"/><line class="cls-2" x1="804.22" y1="203.09" x2="638.55" y2="67.76"/><polygon class="cls-3" points="633.09 63.3 643.36 66.44 638.96 68.1 638.22 72.74 633.09 63.3"/><line class="cls-2" x1="804.22" y1="228.21" x2="638.55" y2="363.54"/><polygon class="cls-3" points="633.09 368 638.22 358.56 638.96 363.2 643.36 364.86 633.09 368"/><line class="cls-2" x1="266" y1="215.65" x2="33.06" y2="215.65"/><polygon class="cls-3" points="26 215.65 35.95 211.58 33.59 215.65 35.95 219.71 26 215.65"/><line class="cls-2" x1="812.54" y1="215.65" x2="353.5" y2="215.65"/><polygon class="cls-3" points="819.6 215.65 809.65 211.58 812.01 215.65 809.65 219.71 819.6 215.65"/><rect class="cls-4" x="504.5" y="193.65" width="153.29" height="44"/><rect class="cls-4" x="697.11" y="111.19" width="179.1" height="44"/><rect class="cls-4" x="295.23" y="112.62" width="178.94" height="44"/><rect class="cls-4" x="688.56" y="279.61" width="136.55" height="44"/><rect class="cls-4" x="353.5" y="323.75" width="120.67" height="44"/><text class="cls-5" transform="translate(271.65 273.94) scale(1.01 1)">G<tspan class="cls-6" x="12.46" y="0">at</tspan><tspan class="cls-7" x="29.58" y="0">e</tspan><tspan class="cls-8" x="39.56" y="0">w</tspan><tspan class="cls-9" x="54.6" y="0">ay</tspan></text><g class="cls-10"><rect class="cls-11" x="278.45" y="182.79" width="65.38" height="18.87" rx="2.3" ry="2.3"/></g><rect class="cls-12" x="277.03" y="184.21" width="65.38" height="18.87" rx="2.3" ry="2.3"/><circle class="cls-13" cx="288.87" cy="193.65" r="1.94"/><circle class="cls-13" cx="296.94" cy="193.65" r="1.94"/><line class="cls-14" x1="317.94" y1="193.65" x2="332.04" y2="193.65"/><g class="cls-10"><rect class="cls-11" x="278.45" y="204.79" width="65.38" height="18.87" rx="2.3" ry="2.3"/></g><rect class="cls-12" x="277.03" y="206.21" width="65.38" height="18.87" rx="2.3" ry="2.3"/><circle class="cls-13" cx="288.87" cy="215.65" r="1.94"/><circle class="cls-13" cx="296.94" cy="215.65" r="1.94"/><line class="cls-14" x1="317.94" y1="215.65" x2="332.04" y2="215.65"/><g class="cls-10"><rect class="cls-11" x="278.45" y="226.79" width="65.38" height="18.87" rx="2.3" ry="2.3"/></g><rect class="cls-12" x="277.03" y="228.21" width="65.38" height="18.87" rx="2.3" ry="2.3"/><circle class="cls-13" cx="288.87" cy="237.65" r="1.94"/><circle class="cls-13" cx="296.94" cy="237.65" r="1.94"/><line class="cls-14" x1="317.94" y1="237.65" x2="332.04" y2="237.65"/><text class="cls-5" transform="translate(557.99 88.59) scale(1.01 1)">Config</text><g class="cls-10"><rect class="cls-11" x="555.28" y="43" width="65.38" height="18.87" rx="2.3" ry="2.3"/></g><rect class="cls-12" x="553.86" y="44.42" width="65.38" height="18.87" rx="2.3" ry="2.3"/><circle class="cls-13" cx="565.7" cy="53.86" r="1.94"/><circle class="cls-13" cx="573.77" cy="53.86" r="1.94"/><line class="cls-14" x1="594.77" y1="53.86" x2="608.87" y2="53.86"/><text class="cls-5" transform="translate(555.9 437.18) scale(1.01 1)">Eu<tspan class="cls-8" x="21.83" y="0">r</tspan><tspan x="29.51" y="0">e</tspan><tspan class="cls-15" x="39.64" y="0">k</tspan><tspan class="cls-9" x="50.22" y="0">a</tspan></text><g class="cls-10"><rect class="cls-11" x="555.28" y="391.6" width="65.38" height="18.87" rx="2.3" ry="2.3"/></g><rect class="cls-12" x="553.86" y="393.02" width="65.38" height="18.87" rx="2.3" ry="2.3"/><circle class="cls-13" cx="565.7" cy="402.45" r="1.94"/><circle class="cls-13" cx="573.77" cy="402.45" r="1.94"/><line class="cls-14" x1="594.77" y1="402.45" x2="608.87" y2="402.45"/><text class="cls-5" transform="translate(830.03 249.43) scale(1.01 1)">Se<tspan class="cls-16" x="20.99" y="0">r</tspan><tspan x="28.97" y="0">vi</tspan><tspan class="cls-17" x="44.74" y="0">c</tspan><tspan x="53.31" y="0">e</tspan></text><g class="cls-10"><rect class="cls-11" x="830.89" y="203.85" width="65.38" height="18.87" rx="2.3" ry="2.3"/></g><rect class="cls-12" x="829.47" y="205.26" width="65.38" height="18.87" rx="2.3" ry="2.3"/><circle class="cls-13" cx="841.3" cy="214.7" r="1.94"/><circle class="cls-13" cx="849.38" cy="214.7" r="1.94"/><line class="cls-14" x1="870.38" y1="214.7" x2="884.47" y2="214.7"/><line class="cls-2" x1="368.88" y1="228.21" x2="534.55" y2="363.54"/><polygon class="cls-3" points="540.02 368 529.74 364.86 534.14 363.2 534.88 358.56 540.02 368"/><rect class="cls-18" x="705.79" y="115.62" width="35.14" height="35.14" rx="17.57" ry="17.57"/><text class="cls-19" transform="translate(752.79 130.16) scale(1.01 1)">G<tspan class="cls-20" x="10.76" y="0">e</tspan><tspan class="cls-21" x="19.29" y="0">t Config</tspan><tspan x="0" y="19">eu</tspan><tspan class="cls-22" x="18.27" y="19">r</tspan><tspan x="24.63" y="19">e</tspan><tspan class="cls-20" x="33.34" y="19">k</tspan><tspan x="42.24" y="19">a i</tspan><tspan class="cls-22" x="59.07" y="19">p</tspan><tspan x="68.55" y="19">, </tspan><tspan class="cls-20" x="76.83" y="19">e</tspan><tspan class="cls-23" x="85.36" y="19">t</tspan><tspan class="cls-24" x="91.38" y="19">c...</tspan></text><text class="cls-25" transform="translate(717.38 140.91) scale(1.01 1)">1</text><rect class="cls-18" x="430.95" y="280.53" width="35.14" height="35.14" rx="17.57" ry="17.57"/><text class="cls-19" transform="translate(399.75 341.48) scale(1.01 1)">G<tspan class="cls-20" x="10.76" y="0">e</tspan><tspan class="cls-21" x="19.29" y="0">t IP </tspan><tspan class="cls-26" x="47.35" y="0">b</tspan><tspan x="56.89" y="0">y</tspan><tspan x="-31.96" y="19">Se</tspan><tspan class="cls-27" x="-13.89" y="19">r</tspan><tspan x="-7.14" y="19">vi</tspan><tspan class="cls-28" x="6.06" y="19">c</tspan><tspan x="13.52" y="19">eName</tspan></text><text class="cls-25" transform="translate(442.54 305.83) scale(1.01 1)">3</text><rect class="cls-18" x="430.95" y="115.62" width="35.14" height="35.14" rx="17.57" ry="17.57"/><text class="cls-19" transform="translate(339.21 130.16) scale(1.01 1)">G<tspan class="cls-20" x="10.76" y="0">e</tspan><tspan class="cls-21" x="19.29" y="0">t Config</tspan><tspan x="-36.66" y="19">eu</tspan><tspan class="cls-22" x="-18.39" y="19">r</tspan><tspan x="-12.03" y="19">e</tspan><tspan class="cls-20" x="-3.31" y="19">k</tspan><tspan x="5.58" y="19">a i</tspan><tspan class="cls-29" x="22.41" y="19">p</tspan><tspan x="31.89" y="19">, </tspan><tspan class="cls-20" x="40.17" y="19">e</tspan><tspan class="cls-23" x="48.7" y="19">t</tspan><tspan class="cls-24" x="54.72" y="19">c...</tspan></text><text class="cls-25" transform="translate(442.54 140.91) scale(1.01 1)">1</text><rect class="cls-18" x="516.52" y="199.06" width="35.14" height="35.14" rx="17.57" ry="17.57"/><text class="cls-19" transform="translate(563.52 224.36) scale(1.01 1)">Call Se<tspan class="cls-27" x="49.65" y="0">r</tspan><tspan x="56.4" y="0">vi</tspan><tspan class="cls-28" x="69.6" y="0">c</tspan><tspan x="77.05" y="0">e</tspan></text><text class="cls-25" transform="translate(528.11 224.36) scale(1.01 1)">4</text><rect class="cls-4" x="87.84" y="193.65" width="133.54" height="44"/><rect class="cls-18" x="96.82" y="199.06" width="35.14" height="35.14" rx="17.57" ry="17.57"/><text class="cls-19" transform="translate(143.82 224.36) scale(1.01 1)"><tspan class="cls-22">R</tspan><tspan x="10.05" y="0">esponse</tspan></text><text class="cls-25" transform="translate(108.41 224.36) scale(1.01 1)">5</text><rect class="cls-18" x="705.79" y="280.53" width="35.14" height="35.14" rx="17.57" ry="17.57"/><text class="cls-19" transform="translate(752.79 305.83) scale(1.01 1)"><tspan class="cls-22">Re</tspan><tspan x="18.59" y="0">gi</tspan><tspan class="cls-30" x="32.1" y="0">s</tspan><tspan class="cls-21" x="39.18" y="0">t</tspan><tspan class="cls-27" x="45.48" y="0">r</tspan><tspan x="52.23" y="0">y</tspan></text><text class="cls-25" transform="translate(717.38 305.83) scale(1.01 1)">2</text></g></g></svg>