<svg xmlns="http://www.w3.org/2000/svg" viewBox="0 0 535.16 363.97"><defs><style>.cls-1{isolation:isolate;}.cls-2{opacity:0.55;mix-blend-mode:multiply;}.cls-3{fill:#7a7a7a;}.cls-4{fill:#52bced;}.cls-5{font-size:21.42px;font-family:NotoSansCJKjp-Black-83pv-RKSJ-H, Noto Sans CJK JP;}.cls-13,.cls-20,.cls-5{fill:#3d4653;}.cls-6{letter-spacing:-0.02em;}.cls-7{fill:#fff;}.cls-12,.cls-8{fill:none;stroke-miterlimit:10;}.cls-8{stroke:#fff;stroke-linecap:round;stroke-width:3.02px;}.cls-9{letter-spacing:0em;}.cls-10{letter-spacing:-0.03em;}.cls-11{letter-spacing:0em;}.cls-12{stroke:#3d4653;stroke-dasharray:3 2;}.cls-13{font-size:18.47px;font-family:NotoSansCJKjp-Bold-83pv-RKSJ-H, Noto Sans CJK JP;font-weight:700;}.cls-14{letter-spacing:0.01em;}.cls-15{letter-spacing:-0.03em;}.cls-16{letter-spacing:0em;}.cls-17{letter-spacing:-0.01em;}.cls-18{letter-spacing:-0.01em;}.cls-19{letter-spacing:-0.01em;}</style></defs><title>JCConf_2018_softleader</title><g class="cls-1"><g id="圖層_1" data-name="圖層 1"><g class="cls-2"><rect class="cls-3" x="245.37" y="108.42" width="42.89" height="136.88" rx="5.03" ry="5.03"/></g><rect class="cls-4" x="242.28" y="111.51" width="42.89" height="136.88" rx="5.03" ry="5.03"/><text class="cls-5" transform="translate(427.16 321.62) scale(0.93 1)"><tspan class="cls-6">F</tspan><tspan x="12.47" y="0">eign</tspan></text><g class="cls-2"><rect class="cls-3" x="418.63" y="210.62" width="75.91" height="23.79" rx="2.79" ry="2.79"/></g><rect class="cls-4" x="416.92" y="212.33" width="75.91" height="23.79" rx="2.79" ry="2.79"/><ellipse class="cls-7" cx="430.66" cy="224.22" rx="2.25" ry="2.44"/><ellipse class="cls-7" cx="440.03" cy="224.22" rx="2.25" ry="2.44"/><line class="cls-8" x1="464.42" y1="224.22" x2="480.78" y2="224.22"/><g class="cls-2"><rect class="cls-3" x="418.63" y="238.34" width="75.91" height="23.79" rx="2.79" ry="2.79"/></g><rect class="cls-4" x="416.92" y="240.05" width="75.91" height="23.79" rx="2.79" ry="2.79"/><ellipse class="cls-7" cx="430.66" cy="251.95" rx="2.25" ry="2.44"/><ellipse class="cls-7" cx="440.03" cy="251.95" rx="2.25" ry="2.44"/><line class="cls-8" x1="464.42" y1="251.95" x2="480.78" y2="251.95"/><g class="cls-2"><rect class="cls-3" x="418.63" y="266.06" width="75.91" height="23.79" rx="2.79" ry="2.79"/></g><rect class="cls-4" x="416.92" y="267.78" width="75.91" height="23.79" rx="2.79" ry="2.79"/><ellipse class="cls-7" cx="430.66" cy="279.67" rx="2.25" ry="2.44"/><ellipse class="cls-7" cx="440.03" cy="279.67" rx="2.25" ry="2.44"/><line class="cls-8" x1="464.42" y1="279.67" x2="480.78" y2="279.67"/><text class="cls-5" transform="translate(417.57 99.56) scale(0.93 1)">Se<tspan class="cls-9" x="26.46" y="0">r</tspan><tspan x="36.5" y="0">vi</tspan><tspan class="cls-10" x="56.38" y="0">c</tspan><tspan class="cls-11" x="67.18" y="0">e</tspan></text><g class="cls-2"><rect class="cls-3" x="418.63" y="42.19" width="75.91" height="23.79" rx="2.79" ry="2.79"/></g><rect class="cls-4" x="416.92" y="43.9" width="75.91" height="23.79" rx="2.79" ry="2.79"/><ellipse class="cls-7" cx="430.66" cy="55.8" rx="2.25" ry="2.44"/><ellipse class="cls-7" cx="440.03" cy="55.8" rx="2.25" ry="2.44"/><line class="cls-8" x1="464.42" y1="55.8" x2="480.78" y2="55.8"/><line class="cls-12" x1="297.11" y1="153.2" x2="397.05" y2="78"/><line class="cls-12" x1="297.11" y1="200.99" x2="397.05" y2="267.78"/><text class="cls-13" transform="translate(55.12 115.6) scale(1.01 1)">/se<tspan class="cls-14" x="27.04" y="0">r</tspan><tspan x="35.35" y="0">vi</tspan><tspan class="cls-15" x="51.6" y="0">c</tspan><tspan class="cls-16" x="60.78" y="0">e/**</tspan></text><text class="cls-13" transform="translate(55.12 168.93) scale(1.01 1)">/<tspan class="cls-17" x="7.17" y="0">f</tspan><tspan x="13.81" y="0">eign/**</tspan></text><text class="cls-5" transform="translate(219.53 296.33) scale(0.93 1)">G<tspan class="cls-6" x="15.7" y="0">at</tspan><tspan class="cls-18" x="37.28" y="0">e</tspan><tspan class="cls-19" x="49.85" y="0">w</tspan><tspan x="68.81" y="0">ay</tspan></text><line class="cls-12" x1="21.12" y1="132.16" x2="197.05" y2="132.16"/><polygon class="cls-20" points="204.11 132.16 194.16 136.22 196.53 132.16 194.16 128.09 204.11 132.16"/><line class="cls-12" x1="21.12" y1="179.95" x2="197.05" y2="179.95"/><polygon class="cls-20" points="204.11 179.95 194.16 184.01 196.53 179.95 194.16 175.88 204.11 179.95"/><line class="cls-12" x1="21.12" y1="227.73" x2="197.05" y2="227.73"/><polygon class="cls-20" points="204.11 227.73 194.16 231.8 196.53 227.73 194.16 223.67 204.11 227.73"/></g></g></svg>