<svg xmlns="http://www.w3.org/2000/svg" viewBox="0 0 910.55 425.42"><defs><style>.cls-1{isolation:isolate;}.cls-12,.cls-2{fill:#52bced;}.cls-18,.cls-2,.cls-3{stroke:#3d4653;}.cls-14,.cls-18,.cls-2,.cls-3{stroke-miterlimit:10;}.cls-14,.cls-18,.cls-3{fill:none;}.cls-4{fill:#e7ecf2;}.cls-5{font-size:16px;}.cls-19,.cls-20,.cls-5,.cls-6{fill:#3d4653;}.cls-23,.cls-5,.cls-6{font-family:NotoSansCJKjp-Black-83pv-RKSJ-H, Noto Sans CJK JP;}.cls-6{font-size:21.42px;}.cls-7{letter-spacing:-0.02em;}.cls-8{letter-spacing:-0.01em;}.cls-9{letter-spacing:-0.01em;}.cls-10{opacity:0.55;mix-blend-mode:multiply;}.cls-11{fill:#7a7a7a;}.cls-13,.cls-23{fill:#fff;}.cls-14{stroke:#fff;stroke-linecap:round;stroke-width:3.02px;}.cls-15{letter-spacing:0em;}.cls-16{letter-spacing:-0.03em;}.cls-17{letter-spacing:0em;}.cls-18{stroke-dasharray:3 2;}.cls-20{font-size:18.47px;font-family:NotoSansCJKjp-Bold-83pv-RKSJ-H, Noto Sans CJK JP;font-weight:700;}.cls-21{letter-spacing:0.01em;}.cls-22{letter-spacing:-0.03em;}.cls-23{font-size:25px;}.cls-24{letter-spacing:-0.03em;}.cls-25{letter-spacing:-0.02em;}.cls-26{letter-spacing:0.01em;}</style></defs><title>JCConf_2018_softleader</title><g class="cls-1"><g id="圖層_1" data-name="圖層 1"><rect class="cls-2" x="55.73" y="41.43" width="798.37" height="75.14"/><rect class="cls-3" x="55.73" y="116.57" width="798.37" height="258.35"/><rect class="cls-4" x="70.73" y="265.9" width="66.79" height="85.53"/><text class="cls-5" transform="translate(84.39 314.95) scale(1.01 1)">8080</text><text class="cls-6" transform="translate(207.24 336.49) scale(0.93 1)">G<tspan class="cls-7" x="15.7" y="0">at</tspan><tspan class="cls-8" x="37.28" y="0">e</tspan><tspan class="cls-9" x="49.85" y="0">w</tspan><tspan x="68.81" y="0">ay</tspan></text><g class="cls-10"><rect class="cls-11" x="215.21" y="279.12" width="75.91" height="23.79" rx="2.79" ry="2.79"/></g><rect class="cls-12" x="213.49" y="280.84" width="75.91" height="23.79" rx="2.79" ry="2.79"/><ellipse class="cls-13" cx="227.23" cy="292.73" rx="2.25" ry="2.44"/><ellipse class="cls-13" cx="236.61" cy="292.73" rx="2.25" ry="2.44"/><line class="cls-14" x1="260.99" y1="292.73" x2="277.35" y2="292.73"/><text class="cls-6" transform="translate(596.62 336.49) scale(0.93 1)">Eu<tspan class="cls-9" x="27.51" y="0">r</tspan><tspan x="37.19" y="0">e</tspan><tspan class="cls-9" x="49.96" y="0">k</tspan><tspan x="63.28" y="0">a</tspan></text><g class="cls-10"><rect class="cls-11" x="595.97" y="279.12" width="75.91" height="23.79" rx="2.79" ry="2.79"/></g><rect class="cls-12" x="594.25" y="280.84" width="75.91" height="23.79" rx="2.79" ry="2.79"/><ellipse class="cls-13" cx="607.99" cy="292.73" rx="2.25" ry="2.44"/><ellipse class="cls-13" cx="617.37" cy="292.73" rx="2.25" ry="2.44"/><line class="cls-14" x1="641.75" y1="292.73" x2="658.11" y2="292.73"/><text class="cls-6" transform="translate(751.89 336.49) scale(0.93 1)">Se<tspan class="cls-15" x="26.46" y="0">r</tspan><tspan x="36.5" y="0">vi</tspan><tspan class="cls-16" x="56.38" y="0">c</tspan><tspan class="cls-17" x="67.18" y="0">e</tspan></text><g class="cls-10"><rect class="cls-11" x="752.95" y="279.12" width="75.91" height="23.79" rx="2.79" ry="2.79"/></g><rect class="cls-12" x="751.24" y="280.84" width="75.91" height="23.79" rx="2.79" ry="2.79"/><ellipse class="cls-13" cx="764.98" cy="292.73" rx="2.25" ry="2.44"/><ellipse class="cls-13" cx="774.35" cy="292.73" rx="2.25" ry="2.44"/><line class="cls-14" x1="798.74" y1="292.73" x2="815.1" y2="292.73"/><line class="cls-18" x1="137.53" y1="308.66" x2="194.12" y2="308.66"/><polygon class="cls-19" points="201.19 308.66 191.24 312.73 193.6 308.66 191.24 304.6 201.19 308.66"/><line class="cls-18" x1="308.19" y1="308.66" x2="571.12" y2="308.66"/><polygon class="cls-19" points="578.18 308.66 568.24 312.73 570.6 308.66 568.24 304.6 578.18 308.66"/><line class="cls-18" x1="688.19" y1="304.62" x2="734.46" y2="304.62"/><polygon class="cls-19" points="741.52 304.62 731.57 308.69 733.93 304.62 731.57 300.56 741.52 304.62"/><rect class="cls-13" x="373.26" y="295.59" width="143.39" height="24.42"/><text class="cls-20" transform="translate(381.31 313.63) scale(1.01 1)">lb://se<tspan class="cls-21" x="57.92" y="0">r</tspan><tspan x="66.23" y="0">vi</tspan><tspan class="cls-22" x="82.48" y="0">c</tspan><tspan x="91.66" y="0">e/**</tspan></text><line class="cls-18" x1="251.45" y1="265.9" x2="449.22" y2="120.75"/><polygon class="cls-19" points="454.91 116.57 449.3 125.73 448.79 121.06 444.49 119.18 454.91 116.57"/><line class="cls-18" x1="454.91" y1="116.57" x2="782.75" y2="263.02"/><polygon class="cls-19" points="789.19 265.9 778.45 265.55 782.26 262.8 781.77 258.13 789.19 265.9"/><text class="cls-23" transform="translate(414.18 88.74) scale(0.93 1)">doc<tspan class="cls-24" x="45.8" y="0">k</tspan><tspan x="60.8" y="0">er</tspan></text><rect class="cls-13" x="277.35" y="178.03" width="143.39" height="24.42"/><text class="cls-20" transform="translate(285.41 196.06) scale(1.01 1)">h<tspan class="cls-25" x="11.82" y="0">t</tspan><tspan x="19.15" y="0">tp://se</tspan><tspan class="cls-26" x="79.01" y="0">r</tspan><tspan x="87.32" y="0">vi</tspan><tspan class="cls-22" x="103.57" y="0">c</tspan><tspan x="112.75" y="0">e/**</tspan></text></g></g></svg>