<svg xmlns="http://www.w3.org/2000/svg" viewBox="0 0 449 251"><defs><style>.cls-1{isolation:isolate;}.cls-2{font-size:15px;font-family:NotoSansCJKjp-Bold-83pv-RKSJ-H, Noto Sans CJK JP;font-weight:700;}.cls-11,.cls-2{fill:#3d4653;}.cls-3{letter-spacing:0.01em;}.cls-4{letter-spacing:-0.03em;}.cls-5{opacity:0.55;mix-blend-mode:multiply;}.cls-21,.cls-6{fill:#7a7a7a;}.cls-7{fill:#52bced;}.cls-8{fill:#fff;}.cls-10,.cls-9{fill:none;}.cls-9{stroke:#fff;stroke-linecap:round;stroke-width:2.5px;}.cls-10,.cls-21,.cls-22,.cls-9{stroke-miterlimit:10;}.cls-10{stroke:#3d4653;stroke-dasharray:3 2;}.cls-12{letter-spacing:-0.01em;}.cls-13{letter-spacing:-0.02em;}.cls-14,.cls-22{fill:#e7ecf2;}.cls-15{fill:#cdd0d7;}.cls-16{letter-spacing:-0.02em;}.cls-17{letter-spacing:-0.01em;}.cls-18{letter-spacing:0em;}.cls-19{letter-spacing:-0.03em;}.cls-20{letter-spacing:-0.02em;}.cls-21{stroke:#7a7a7a;}.cls-21,.cls-22{stroke-width:0.25px;}.cls-22{stroke:#999;}</style></defs><title>JCConf_2018_softleader</title><g class="cls-1"><g id="圖層_1" data-name="圖層 1"><text class="cls-2" transform="translate(189.95 142.33) scale(1.01 1)">Se<tspan class="cls-3" x="18.07" y="0">r</tspan><tspan x="24.82" y="0">vi</tspan><tspan class="cls-4" x="38.02" y="0">c</tspan><tspan x="45.48" y="0">e</tspan></text><g class="cls-5"><rect class="cls-6" x="186.13" y="99.75" width="65.38" height="18.87" rx="2.3" ry="2.3"/></g><rect class="cls-7" x="184.71" y="101.16" width="65.38" height="18.87" rx="2.3" ry="2.3"/><circle class="cls-8" cx="196.55" cy="110.6" r="1.94"/><circle class="cls-8" cx="204.62" cy="110.6" r="1.94"/><line class="cls-9" x1="225.62" y1="110.6" x2="239.72" y2="110.6"/><line class="cls-10" x1="268.56" y1="95.41" x2="342.96" y2="54.46"/><polygon class="cls-11" points="262.38 98.81 273.06 97.57 269.03 95.15 269.13 90.45 262.38 98.81"/><polygon class="cls-11" points="349.14 51.06 342.39 59.42 342.5 54.72 338.47 52.3 349.14 51.06"/><line class="cls-10" x1="268.56" y1="144.59" x2="342.96" y2="185.54"/><polygon class="cls-11" points="262.38 141.19 269.13 149.55 269.03 144.85 273.05 142.43 262.38 141.19"/><polygon class="cls-11" points="349.14 188.94 338.47 187.71 342.5 185.28 342.39 180.58 349.14 188.94"/><line class="cls-10" x1="162.94" y1="120.04" x2="48.06" y2="120.04"/><polygon class="cls-11" points="170 120.04 160.05 115.97 162.41 120.04 160.05 124.1 170 120.04"/><polygon class="cls-11" points="41 120.04 50.95 115.97 48.59 120.04 50.95 124.1 41 120.04"/><text class="cls-2" transform="translate(65 105.48) scale(1.01 1)"><tspan class="cls-12">R</tspan><tspan x="10.05" y="0">e</tspan><tspan class="cls-13" x="18.76" y="0">s</tspan><tspan x="25.85" y="0">tful API</tspan></text><text class="cls-2" transform="translate(375.48 98.81) scale(1.01 1)">DB</text><g class="cls-5"><path class="cls-6" d="M364.33,22.23V67.67c0,3.37,10.26,6.1,22.92,6.1s22.92-2.73,22.92-6.1V22.23Z"/></g><path class="cls-14" d="M363.15,23.4V68.84c0,3.37,10.26,6.1,22.92,6.1S409,72.2,409,68.84V23.4Z"/><g class="cls-5"><ellipse class="cls-6" cx="387.25" cy="22.23" rx="22.92" ry="6.1"/></g><ellipse class="cls-15" cx="386.08" cy="23.4" rx="22.92" ry="6.1"/><text class="cls-2" transform="translate(344.25 229.69) scale(1.01 1)">In<tspan class="cls-16" x="14.56" y="0">t</tspan><tspan class="cls-17" x="20.58" y="0">e</tspan><tspan class="cls-18" x="29.11" y="0">g</tspan><tspan class="cls-19" x="38.07" y="0">r</tspan><tspan class="cls-20" x="44.14" y="0">a</tspan><tspan x="52.72" y="0">tion</tspan></text><g class="cls-5"><path class="cls-21" d="M368.54,193.63a1.4,1.4,0,0,1,.39-.94c.87-1.14,1.73-2.27,2.62-3.4a.71.71,0,0,0,.09-.91,9,9,0,0,1-.81-1.92.69.69,0,0,0-.66-.56c-1.51-.21-3-.45-4.53-.67-1-.14-1.27-.48-1.27-1.45q0-3.07,0-6.14c0-.93.33-1.29,1.24-1.43,1.55-.23,3.1-.48,4.65-.7a.66.66,0,0,0,.59-.48,18.88,18.88,0,0,1,.75-1.75.8.8,0,0,0-.08-1c-.92-1.15-1.81-2.31-2.71-3.47-.55-.7-.58-1.07,0-1.75a29.21,29.21,0,0,1,4.64-4.68c.91-.72,1.25-.7,2.16,0,1.1.85,2.2,1.69,3.29,2.56a.8.8,0,0,0,1,.11,3.6,3.6,0,0,1,1.15-.49c.91-.15,1-.76,1.13-1.52a28.86,28.86,0,0,1,.68-4.17c.21-.82.48-1,1.34-1h6.25c.9,0,1.2.25,1.35,1.15q.37,2.26.69,4.53a.93.93,0,0,0,.7.9,10.1,10.1,0,0,1,1.6.65.72.72,0,0,0,.86-.11c1.2-.92,2.4-1.82,3.61-2.73a1.22,1.22,0,0,1,1.85.07,52.13,52.13,0,0,1,4.09,4.08,6.45,6.45,0,0,1,.72.94,1.26,1.26,0,0,1-.2,1.49c-.89,1.15-1.76,2.3-2.66,3.44a.74.74,0,0,0-.09.91c.31.64.58,1.31.83,2a.66.66,0,0,0,.59.48c1.57.22,3.14.47,4.7.72a1.16,1.16,0,0,1,1.15,1.32q0,3.16,0,6.31a1.19,1.19,0,0,1-1.19,1.35c-1.55.23-3.09.49-4.65.7a.74.74,0,0,0-.68.55,6.18,6.18,0,0,1-.55,1.32,1.25,1.25,0,0,0,.19,1.69c.84,1,1.63,2.05,2.43,3.09a1.2,1.2,0,0,1,0,1.85,30.8,30.8,0,0,1-4.56,4.6c-.93.76-1.33.74-2.26,0s-2.13-1.66-3.18-2.5a.84.84,0,0,0-1.07-.15,3.79,3.79,0,0,1-1.09.46c-.88.18-1.11.73-1.17,1.56a26.09,26.09,0,0,1-.67,4.17c-.2.8-.48,1-1.29,1h-6.31c-.88,0-1.19-.26-1.33-1.11q-.37-2.29-.7-4.59c-.07-.45-.21-.78-.71-.89a2.53,2.53,0,0,1-.88-.35,1.59,1.59,0,0,0-2.2.27c-.93.83-2,1.54-3,2.29a1.16,1.16,0,0,1-1.67,0,41.67,41.67,0,0,1-4.74-4.76A1.31,1.31,0,0,1,368.54,193.63Zm18.73-5.25a7.57,7.57,0,1,0-7.55-7.61A7.58,7.58,0,0,0,387.28,188.37Z"/></g><path class="cls-22" d="M367.33,194.84a1.4,1.4,0,0,1,.39-.94c.87-1.14,1.73-2.27,2.62-3.4a.71.71,0,0,0,.09-.91,9,9,0,0,1-.81-1.92.69.69,0,0,0-.66-.56c-1.51-.21-3-.45-4.53-.67-1-.14-1.27-.48-1.27-1.45q0-3.07,0-6.14c0-.93.33-1.29,1.24-1.43,1.55-.23,3.1-.48,4.65-.7a.66.66,0,0,0,.59-.48,18.88,18.88,0,0,1,.75-1.75.8.8,0,0,0-.08-1c-.92-1.15-1.81-2.31-2.71-3.47-.55-.7-.58-1.07,0-1.75a29.21,29.21,0,0,1,4.64-4.68c.91-.72,1.25-.7,2.16,0,1.1.85,2.2,1.69,3.29,2.56a.8.8,0,0,0,1,.11,3.6,3.6,0,0,1,1.15-.49c.91-.15,1-.76,1.13-1.52a28.86,28.86,0,0,1,.68-4.17c.21-.82.48-1,1.34-1h6.25c.9,0,1.2.25,1.35,1.15q.37,2.26.69,4.53a.93.93,0,0,0,.7.9,10.1,10.1,0,0,1,1.6.65.72.72,0,0,0,.86-.11c1.2-.92,2.4-1.82,3.61-2.73a1.22,1.22,0,0,1,1.85.07,52.13,52.13,0,0,1,4.09,4.08,6.45,6.45,0,0,1,.72.94,1.26,1.26,0,0,1-.2,1.49c-.89,1.15-1.76,2.3-2.66,3.44a.74.74,0,0,0-.09.91c.31.64.58,1.31.83,2a.66.66,0,0,0,.59.48c1.57.22,3.14.47,4.7.72A1.16,1.16,0,0,1,409,178.9q0,3.16,0,6.31a1.19,1.19,0,0,1-1.19,1.35c-1.55.23-3.09.49-4.65.7a.74.74,0,0,0-.68.55,6.18,6.18,0,0,1-.55,1.32,1.25,1.25,0,0,0,.19,1.69c.84,1,1.63,2.05,2.43,3.09a1.2,1.2,0,0,1,0,1.85,30.8,30.8,0,0,1-4.56,4.6c-.93.76-1.33.74-2.26,0s-2.13-1.66-3.18-2.5a.84.84,0,0,0-1.07-.15,3.79,3.79,0,0,1-1.09.46c-.88.18-1.11.73-1.17,1.56a26.09,26.09,0,0,1-.67,4.17c-.2.8-.48,1-1.29,1h-6.31c-.88,0-1.19-.26-1.33-1.11q-.37-2.29-.7-4.59c-.07-.45-.21-.78-.71-.89a2.53,2.53,0,0,1-.88-.35,1.59,1.59,0,0,0-2.2.27c-.93.83-2,1.54-3,2.29a1.16,1.16,0,0,1-1.67,0,41.67,41.67,0,0,1-4.74-4.76A1.31,1.31,0,0,1,367.33,194.84Zm18.73-5.25a7.57,7.57,0,1,0-7.55-7.61A7.58,7.58,0,0,0,386.07,189.58Z"/></g></g></svg>